#!OML:ASF F:\VICON\USERDATA\INSTALL\rory3\rory3.ASF
:FULLY-SPECIFIED
:DEGREES
201
root 14.3555 17.732 2.69577 -155.875 -79.9453 157.111
lowerback 12.2955 1.34807 0.976905
upperback 0.000409562 1.92403 0.288719
thorax -6.88247 0.898962 -0.591193
lowerneck -23.8932 -2.59486 -11.2359
upperneck 30.0866 -1.88622 6.51807
head 14.5666 -1.33766 4.21036
rclavicle -1.41137e-014 1.66979e-014
rhumerus -35.9357 -22.5248 -71.0837
rradius 31.0098
rwrist 6.02187
rhand -16.1438 7.51708
rfingers 7.12502
rthumb 10.0614 -22.2224
lclavicle -1.41137e-014 1.66979e-014
lhumerus -32.6512 10.6152 79.7287
lradius 32.9164
lwrist -8.1012
lhand -20.974 23.097
lfingers 7.12502
lthumb 5.39943 53.0082
rfemur -4.93075 -2.73354 19.5491
rtibia 31.9242
rfoot -25.3917 -2.59867
rtoes 8.21087
lfemur -15.9575 1.52907 -17.6066
ltibia 39.2424
lfoot -18.4642 -1.52089
ltoes -21.7189
202
root 14.3256 17.7464 2.73516 -157.753 -79.6723 158.951
lowerback 12.4406 1.39895 1.2152
upperback -0.00111815 2.02736 0.294366
thorax -6.95631 0.940054 -0.742072
lowerneck -23.7207 -2.59721 -11.335
upperneck 30.0053 -1.92515 6.67172
head 14.5 -1.34399 4.27983
rclavicle -4.27387e-015 -3.18055e-015
rhumerus -35.8922 -22.2937 -71.1685
rradius 31.0137
rwrist 5.76281
rhand -16.2074 7.46902
rfingers 7.12502
rthumb 10 -22.2734
lclavicle -4.27387e-015 -3.18055e-015
lhumerus -32.745 10.7219 79.6829
lradius 33.0178
lwrist -8.3023
lhand -20.8304 22.8681
lfingers 7.12502
lthumb 5.53811 52.7757
rfemur -4.62019 -2.23174 19.6271
rtibia 31.5437
rfoot -25.2728 -2.60849
rtoes 8.57751
lfemur -16.1348 1.48606 -16.9784
ltibia 38.9321
lfoot -17.8381 -0.155426
ltoes -21.9553
203
root 14.2969 17.7592 2.77987 -158.625 -79.3376 159.868
lowerback 12.4942 1.43363 1.30231
upperback -0.00944669 2.08505 0.269136
thorax -6.99023 0.964212 -0.829899
lowerneck -23.5068 -2.57294 -11.4472
upperneck 29.7477 -1.91593 6.84024
head 14.3412 -1.32127 4.35946
rclavicle 7.95139e-016 1.51076e-014
rhumerus -35.7254 -21.9128 -71.311
rradius 30.9309
rwrist 5.60052
rhand -16.249 7.57892
rfingers 7.12502
rthumb 9.95996 -22.1654
lclavicle 7.95139e-016 1.51076e-014
lhumerus -32.8459 10.9001 79.582
lradius 33.1494
lwrist -8.61179
lhand -20.2956 22.7503
lfingers 7.12502
lthumb 6.05444 52.6438
rfemur -4.39705 -1.94041 19.4699
rtibia 31.1302
rfoot -25.1499 -2.42093
rtoes 8.85898
lfemur -16.4333 1.46879 -16.5219
ltibia 38.5832
lfoot -17.2504 0.748496
ltoes -21.5662
204
root 14.2664 17.7671 2.82699 -159.143 -78.9629 160.447
lowerback 12.5361 1.46604 1.43587
upperback -0.0427807 2.14157 0.160353
thorax -7.03907 0.984716 -1.03213
lowerneck -23.4332 -2.60241 -11.603
upperneck 29.7505 -1.98891 7.06739
head 14.3394 -1.34098 4.4673
rclavicle 3.16068e-014 7.95139e-015
rhumerus -35.5622 -21.4593 -71.5852
rradius 30.8421
rwrist 5.29882
rhand -16.4354 7.71065
rfingers 7.12502
rthumb 9.7801 -22.0422
lclavicle 3.16068e-014 7.95139e-015
lhumerus -32.9448 10.8937 79.4159
lradius 33.2344
lwrist -8.7949
lhand -19.9459 22.9132
lfingers 7.12502
lthumb 6.39204 52.7968
rfemur -4.20873 -1.78191 19.1996
rtibia 30.7192
rfoot -24.956 -2.19131
rtoes 8.4667
lfemur -16.7383 1.32103 -16.1225
ltibia 38.2023
lfoot -16.7668 1.32412
ltoes -21.6177
205
root 14.2305 17.7752 2.86754 -159.603 -78.5721 160.913
lowerback 12.671 1.50241 1.51704
upperback -0.140665 2.19811 0.0368636
thorax -7.21033 1.00501 -1.22501
lowerneck -23.3129 -2.59173 -11.6213
upperneck 29.9038 -2.0159 7.10895
head 14.3847 -1.3601 4.48733
rclavicle -1.81888e-014 -1.59028e-014
rhumerus -35.5867 -21.0919 -71.7691
rradius 30.8127
rwrist 5.39669
rhand -16.4219 7.77625
rfingers 7.12502
rthumb 9.79315 -21.976
lclavicle -1.81888e-014 -1.59028e-014
lhumerus -33.1687 10.8439 79.1795
lradius 33.2617
lwrist -8.80793
lhand -19.8465 22.4724
lfingers 7.12502
lthumb 6.48796 52.3531
rfemur -3.96902 -1.50494 18.9528
rtibia 30.3388
rfoot -24.7999 -2.08797
rtoes 7.82408
lfemur -16.9532 1.18929 -15.6902
ltibia 37.788
lfoot -16.3756 1.56273
ltoes -21.913
206
root 14.1947 17.782 2.90701 -160.93 -78.2167 162.226
lowerback 12.8491 1.53562 1.77723
upperback -0.209978 2.2798 -0.0457959
thorax -7.36925 1.03103 -1.48168
lowerneck -23.2087 -2.56143 -11.5181
upperneck 29.9346 -2.00649 7.02789
head 14.372 -1.35996 4.43687
rclavicle 3.30976e-014 -1.43125e-014
rhumerus -35.693 -20.9134 -71.9027
rradius 30.9246
rwrist 5.8802
rhand -15.9495 7.80125
rfingers 7.12502
rthumb 10.2488 -21.9291
lclavicle 3.30976e-014 -1.43125e-014
lhumerus -33.3463 11.0375 78.8468
lradius 33.2341
lwrist -8.99437
lhand -19.4915 21.8285
lfingers 7.12502
lthumb 6.83068 51.6983
rfemur -3.66071 -1.16257 18.943
rtibia 29.9381
rfoot -24.6664 -2.14059
rtoes 7.02647
lfemur -17.1284 1.21368 -14.9838
ltibia 37.3673
lfoot -15.933 1.21328
ltoes -20.6365
207
root 14.1611 17.785 2.94976 -162.826 -77.9106 164.157
lowerback 12.9663 1.5961 2.20566
upperback -0.235522 2.42382 -0.0985957
thorax -7.43796 1.08244 -1.81071
lowerneck -23.0845 -2.62523 -11.3909
upperneck 29.8472 -2.13913 6.94931
head 14.3203 -1.41195 4.35217
rclavicle -3.6477e-014 -2.38542e-015
rhumerus -35.7787 -20.9411 -72.0444
rradius 31.0573
rwrist 6.20945
rhand -15.6456 7.81564
rfingers 7.12502
rthumb 10.542 -21.9
lclavicle -3.6477e-014 -2.38542e-015
lhumerus -33.4168 11.2503 78.5313
lradius 33.2498
lwrist -9.17862
lhand -19.2403 21.5785
lfingers 7.12502
lthumb 7.07315 51.4403
rfemur -3.40042 -1.01197 19.0525
rtibia 29.4925
rfoot -24.4047 -1.80902
rtoes 7.20676
lfemur -17.421 1.811 -14.0769
ltibia 36.9101
lfoot -15.4324 0.169533
ltoes -18.719
208
root 14.1254 17.7862 2.99435 -163.949 -77.5121 165.309
lowerback 13.013 1.6867 2.35242
upperback -0.236825 2.5653 -0.127266
thorax -7.45182 1.14468 -1.95212
lowerneck -22.8919 -2.68351 -10.9928
upperneck 29.6714 -2.24733 6.50234
head 14.2041 -1.47122 4.06788
rclavicle 1.12313e-014 -4.77083e-015
rhumerus -35.7017 -20.6965 -72.2001
rradius 31.0413
rwrist 6.38901
rhand -15.5872 7.85462
rfingers 7.12502
rthumb 10.5984 -21.8581
lclavicle 1.12313e-014 -4.77083e-015
lhumerus -33.4959 11.6432 78.2775
lradius 33.2984
lwrist -9.42212
lhand -19.2237 21.8568
lfingers 7.12502
lthumb 7.08926 51.7181
rfemur -3.06506 -0.412055 18.9103
rtibia 28.9965
rfoot -24.239 -0.770966
rtoes 11.4827
lfemur -17.7259 2.63996 -13.3908
ltibia 36.4265
lfoot -14.9787 -0.958969
ltoes -18.2786
209
root 14.0862 17.7919 3.03939 -165.052 -77.1275 166.483
lowerback 13.0009 1.72611 2.50513
upperback -0.27901 2.64289 -0.117494
thorax -7.48024 1.17617 -2.0429
lowerneck -22.6355 -2.65733 -10.7292
upperneck 29.542 -2.22873 6.16537
head 14.0828 -1.48035 3.87925
rclavicle -1.49089e-014 -8.74653e-015
rhumerus -35.6646 -20.2022 -72.3629
rradius 31.0663
rwrist 6.53169
rhand -15.4472 7.8835
rfingers 7.12502
rthumb 10.7334 -21.8223
lclavicle -1.49089e-014 -8.74653e-015
lhumerus -33.6635 12.1434 78.0215
lradius 33.2674
lwrist -9.55544
lhand -19.0404 21.904
lfingers 7.12502
lthumb 7.26611 51.7592
rfemur -2.76325 0.294432 18.8264
rtibia 28.5376
rfoot -24.178 -0.0340837
rtoes 14.8331
lfemur -17.961 2.73722 -12.6791
ltibia 35.8828
lfoot -14.4167 -1.56492
ltoes -16.9063
210
root 14.0468 17.7968 3.08817 -166.217 -76.7961 167.711
lowerback 13.0485 1.75645 2.7827
upperback -0.320737 2.7287 -0.112002
thorax -7.53537 1.20585 -2.21252
lowerneck -22.4917 -2.71174 -10.8349
upperneck 29.5174 -2.30032 6.1978
head 14.0518 -1.52147 3.89549
rclavicle -7.65321e-015 -1.59028e-015
rhumerus -35.719 -19.9454 -72.4255
rradius 31.2654
rwrist 6.65022
rhand -15.1704 7.94111
rfingers 7.12502
rthumb 11.0004 -21.7507
lclavicle -7.65321e-015 -1.59028e-015
lhumerus -33.7844 12.4635 77.8442
lradius 33.2419
lwrist -9.35848
lhand -19.1021 22.0814
lfingers 7.12502
lthumb 7.20663 51.9386
rfemur -2.64276 0.244995 18.8428
rtibia 28.213
rfoot -23.9552 -0.183376
rtoes 12.8141
lfemur -18.1293 2.37509 -11.9227
ltibia 35.2426
lfoot -13.7853 -1.69674
ltoes -16.0316
